# File created by Blade
# Date/Time:  Tue Sep 23 19:15:59 2014
# Frame Rate: 120.000 fps
#------------------------------------------------------
:FULLY-SPECIFIED
:DEGREES
2004
root 0.588682 34.319713 -8.640119 59.516695 -14.966459 -45.150808
Spine -32.076260 -10.558369 41.568419
Head -4.211657 -16.879833 21.161724
LeftShoulder 12.333806 31.367246 43.092547
LeftArm 95.707089 17.057143 -44.709457
LeftForeArm -11.873806 -0.000000 13.552010
LeftHand 50.546226 0.000000 -17.452334
LeftHandThumb1 -26.253704 0.000000 33.147579
RightShoulder -9.278491 -46.173827 -3.068055
RightArm 53.148482 9.857410 43.279115
RightForeArm 17.073997 0.000000 38.342631
RightHand -0.416956 -0.000000 23.030642
RightHandThumb1 -24.326973 -0.000000 -32.862282
LeftUpLeg -53.699220 30.398030 23.942205
LeftLeg 24.367883 -0.000000 -0.000000
LeftFoot -12.290647 14.111675 0.886836
LeftToeBase 2.558721 -0.000000 -0.000000
RightUpLeg -79.624593 -39.056207 -45.047800
RightLeg 126.407036 -0.000000 -0.000000
RightFoot 37.848384 10.809554 -7.663661
RightToeBase 47.888093 -0.000000 -0.000000
2005
root 0.558834 34.353528 -8.682334 59.604181 -14.678805 -45.464505
Spine -31.824785 -10.550854 41.651602
Head -4.689436 -16.904485 21.424179
LeftShoulder 12.172678 31.446407 42.994868
LeftArm 95.664993 16.955335 -44.446705
LeftForeArm -11.479719 -0.000000 14.266580
LeftHand 50.554664 -0.000000 -17.108625
LeftHandThumb1 -26.253704 0.000000 33.147579
RightShoulder -9.335269 -46.104482 -3.328619
RightArm 53.002412 10.170776 43.591392
RightForeArm 16.546127 0.000000 38.517156
RightHand -0.424274 0.000000 22.752105
RightHandThumb1 -24.326973 -0.000000 -32.862282
LeftUpLeg -53.723509 30.928545 24.127303
LeftLeg 24.131178 -0.000000 -0.000000
LeftFoot -12.460504 13.312131 0.626632
LeftToeBase 2.224815 -0.000000 -0.000000
RightUpLeg -78.640971 -39.060876 -45.617819
RightLeg 125.786556 -0.000000 -0.000000
RightFoot 37.491699 10.482049 -7.688803
RightToeBase 47.877389 -0.000000 -0.000000
2006
root 0.529521 34.382954 -8.720458 59.576309 -14.402853 -45.716040
Spine -31.455695 -10.589012 41.653523
Head -5.428390 -16.901191 21.839267
LeftShoulder 12.011370 31.554423 42.947109
LeftArm 95.568441 16.868023 -44.465356
LeftForeArm -10.632195 -0.000000 15.311195
LeftHand 50.594833 0.000000 -16.726368
LeftHandThumb1 -26.253704 0.000000 33.147579
RightShoulder -9.485975 -46.093136 -3.419552
RightArm 52.785958 10.643877 44.095356
RightForeArm 15.912058 -0.000000 38.940401
RightHand -0.433386 -0.000000 22.513225
RightHandThumb1 -24.326973 -0.000000 -32.862282
LeftUpLeg -53.607194 31.249450 24.429141
LeftLeg 23.914146 -0.000000 -0.000000
LeftFoot -12.627108 12.594448 0.331521
LeftToeBase 2.222547 -0.000000 -0.000000
RightUpLeg -77.675836 -39.203963 -46.175556
RightLeg 125.235350 -0.000000 -0.000000
RightFoot 37.156053 10.301653 -7.634675
RightToeBase 47.861466 -0.000000 -0.000000
2007
root 0.498125 34.414232 -8.759743 59.641234 -14.104726 -46.025132
Spine -31.113996 -10.537571 41.726869
Head -6.278637 -16.814316 22.258623
LeftShoulder 11.802358 31.676146 42.870163
LeftArm 95.534568 16.699439 -44.064779
LeftForeArm -10.615540 -0.000000 16.711575
LeftHand 50.471955 -0.000000 -16.463063
LeftHandThumb1 -26.253704 0.000000 33.147579
RightShoulder -9.653960 -46.181178 -3.450941
RightArm 52.535010 11.218166 44.712582
RightForeArm 15.329147 0.000000 39.610796
RightHand -0.555605 0.000000 22.303886
RightHandThumb1 -24.326973 -0.000000 -32.862282
LeftUpLeg -53.555459 31.580947 24.814345
LeftLeg 23.756826 -0.000000 -0.000000
LeftFoot -12.698061 12.006585 0.148887
LeftToeBase 2.008695 -0.000000 -0.000000
RightUpLeg -77.017277 -39.528342 -46.387406
RightLeg 124.788120 -0.000000 -0.000000
RightFoot 36.746080 10.034934 -7.581111
RightToeBase 48.002890 -0.000000 -0.000000
2008
root 0.464223 34.447127 -8.795108 59.739821 -13.782458 -46.332802
Spine -30.808374 -10.437068 41.830829
Head -7.149042 -16.749480 22.720843
LeftShoulder 11.661406 31.715500 42.815061
LeftArm 95.210947 16.716218 -44.284184
LeftForeArm -9.810596 0.000000 18.304842
LeftHand 50.458883 -0.000000 -16.016281
LeftHandThumb1 -26.253704 0.000000 33.147579
RightShoulder -9.939132 -46.261640 -3.341361
RightArm 52.253236 11.836772 45.379086
RightForeArm 14.710784 -0.000000 40.409900
RightHand -0.630425 -0.000000 22.166079
RightHandThumb1 -24.326973 -0.000000 -32.862282
LeftUpLeg -53.494059 31.835379 25.302912
LeftLeg 23.589075 -0.000000 -0.000000
LeftFoot -12.689719 11.470242 -0.145873
LeftToeBase 2.059753 -0.000000 -0.000000
RightUpLeg -76.512478 -40.028343 -46.430039
RightLeg 124.438795 -0.000000 -0.000000
RightFoot 36.453995 9.902700 -7.496564
RightToeBase 47.952835 -0.000000 -0.000000
2009
root 0.427463 34.479115 -8.826942 59.904462 -13.526809 -46.577290
Spine -30.621780 -10.284491 41.841221
Head -7.974859 -16.624624 23.232407
LeftShoulder 11.562153 31.957520 42.780995
LeftArm 95.190475 16.521570 -44.031381
LeftForeArm -9.908672 0.000000 19.903439
LeftHand 50.449240 -0.000000 -15.799310
LeftHandThumb1 -26.253704 0.000000 33.147579
RightShoulder -10.303617 -46.303709 -3.090912
RightArm 51.901750 12.415226 45.949235
RightForeArm 14.186468 -0.000000 41.316931
RightHand -0.870871 -0.000000 22.104043
RightHandThumb1 -24.326973 -0.000000 -32.862282
LeftUpLeg -53.462997 32.016034 25.750809
LeftLeg 23.405239 -0.000000 -0.000000
LeftFoot -12.574858 11.125651 -0.423724
LeftToeBase 2.130619 -0.000000 -0.000000
RightUpLeg -76.171701 -40.714560 -46.455265
RightLeg 124.136197 -0.000000 -0.000000
RightFoot 36.430301 9.679728 -7.149554
RightToeBase 48.083057 -0.000000 -0.000000
2010
root 0.390218 34.511497 -8.856041 60.188151 -13.304475 -46.806096
Spine -30.589915 -10.049410 41.867455
Head -8.614297 -16.661564 23.682158
LeftShoulder 11.495946 32.164581 42.713252
LeftArm 95.032036 16.424831 -44.004261
LeftForeArm -10.058797 0.000000 21.550093
LeftHand 50.335630 -0.000000 -15.358437
LeftHandThumb1 -26.253704 0.000000 33.147579
RightShoulder -10.752912 -46.506460 -2.754274
RightArm 51.726791 13.081025 46.577638
RightForeArm 13.627335 -0.000000 42.226727
RightHand -1.087420 -0.000000 22.034487
RightHandThumb1 -24.326973 -0.000000 -32.862282
LeftUpLeg -53.534448 32.210735 26.130174
LeftLeg 23.218009 -0.000000 -0.000000
LeftFoot -12.379093 10.983477 -0.611229
LeftToeBase 2.179093 -0.000000 -0.000000
RightUpLeg -76.096693 -41.624821 -46.302944
RightLeg 123.937777 -0.000000 -0.000000
RightFoot 36.541071 9.464604 -6.924862
RightToeBase 48.126231 -0.000000 -0.000000
2011
root 0.352168 34.538202 -8.872688 60.483066 -13.103606 -46.883475
Spine -30.741636 -9.822216 41.833657
Head -9.115608 -16.654658 24.054222
LeftShoulder 11.468131 32.257327 42.615298
LeftArm 94.910869 16.425258 -43.955130
LeftForeArm -10.055672 -0.000000 23.049328
LeftHand 50.289287 -0.000000 -14.705524
LeftHandThumb1 -26.253704 0.000000 33.147579
RightShoulder -11.255265 -46.558833 -2.351476
RightArm 51.403139 13.676863 47.172013
RightForeArm 13.047996 -0.000000 43.259719
RightHand -1.401676 -0.000000 22.069817
RightHandThumb1 -24.326973 -0.000000 -32.862282
LeftUpLeg -53.629300 32.226571 26.421718
LeftLeg 22.969286 -0.000000 -0.000000
LeftFoot -12.109583 11.024937 -0.688595
LeftToeBase 2.318679 -0.000000 -0.000000
RightUpLeg -76.008640 -42.764170 -46.248632
RightLeg 123.776283 -0.000000 -0.000000
RightFoot 36.990211 9.502398 -6.933900
RightToeBase 47.691820 -0.000000 -0.000000
